<svg xmlns="http://www.w3.org/2000/svg" viewBox="0 0 350 350">

  <defs>
    <linearGradient id="bg" x1="0" y1="0" x2="1" y2="1">
      <stop offset="0%" stop-color="#242424"/>
      <stop offset="100%" stop-color="#161616"/>
    </linearGradient>
    <linearGradient id="rg" x1="0" y1="0" x2="1" y2="1">
      <stop offset="0%" stop-color="#EDD5B0"/>
      <stop offset="45%" stop-color="#C9956C"/>
      <stop offset="100%" stop-color="#A07040"/>
    </linearGradient>
  </defs>

  <rect x="0" y="0" width="350" height="350" rx="78" fill="url(#bg)"/>

  <line x1="65" y1="37" x2="285" y2="37" stroke="#C9956C" stroke-width="0.6" opacity="0.3"/>
  <line x1="65" y1="313" x2="285" y2="313" stroke="#C9956C" stroke-width="0.6" opacity="0.3"/>

  <path d="M175 65 Q175 51 187 51 Q199 51 199 63 Q199 73 187 75"
    fill="none" stroke="url(#rg)" stroke-width="3.5" stroke-linecap="round"/>

  <path d="M175 75 Q145 85 85 115"
    fill="none" stroke="url(#rg)" stroke-width="3.5" stroke-linecap="round"/>

  <path d="M175 75 Q205 85 265 115"
    fill="none" stroke="url(#rg)" stroke-width="3.5" stroke-linecap="round"/>

  <line x1="85" y1="115" x2="265" y2="115"
    stroke="url(#rg)" stroke-width="3.5" stroke-linecap="round"/>

  <text x="175" y="207"
    text-anchor="middle"
    dominant-baseline="central"
    font-family="Georgia, 'Times New Roman', serif"
    font-size="178"
    font-weight="400"
    letter-spacing="-6"
    fill="url(#rg)">MS</text>

  <line x1="85" y1="257" x2="265" y2="257" stroke="#C9956C" stroke-width="0.8" opacity="0.5"/>

  <circle cx="175" cy="269" r="2.5" fill="#C9956C" opacity="0.6"/>

</svg>
